<svg width="167" height="103" viewBox="0 0 167 103" fill="none" xmlns="http://www.w3.org/2000/svg">
<path d="M19 11H148C153.5 11 158 15.5 158 21V80.5C158 86 153.5 90.5 148 90.5H19C13.5 90.5 9 86 9 80.5V21C9 15.5 13.5 11 19 11Z" fill="#E93329"/>
<path d="M17 42.559C17.1 42.159 17.2 41.759 17.2 41.259C17.8 37.959 19.5 35.559 22.4 33.959C23.2 33.459 24.1 33.259 25.1 33.159C27.4 32.859 29.5 33.259 31.4 34.659C31.8 34.959 32.2 35.259 32.5 35.559C32.6 35.559 32.6 35.659 32.7 35.759C32.7 35.059 32.7 34.359 32.7 33.659C34.4 33.659 36.1 33.659 37.7 33.659C37.7 40.459 37.7 47.159 37.7 53.959C36 53.959 34.4 53.959 32.7 53.959C32.7 53.259 32.7 52.659 32.7 51.959C32.6 52.059 32.5 52.059 32.5 52.159C32 52.559 31.4 53.059 30.9 53.359C29.8 54.059 28.5 54.459 27.2 54.559C25.6 54.659 24.1 54.359 22.7 53.659C21.5 53.059 20.4 52.159 19.5 51.059C18.2 49.559 17.4 47.859 17.2 45.959C17.2 45.659 17.1 45.359 17 45.059C17 44.159 17 43.359 17 42.559ZM22.1 43.559C22.1 45.559 22.7 47.159 23.9 48.359C25.2 49.659 26.9 50.059 28.6 49.659C30.5 49.259 31.8 48.159 32.4 46.259C32.7 45.159 32.8 44.159 32.8 42.959C32.8 42.059 32.6 41.259 32.2 40.459C31.3 38.759 29.8 37.859 27.9 37.659C25.9 37.459 24.3 38.259 23.2 39.859C22.4 41.059 22.1 42.259 22.1 43.559Z" fill="white"/>
<path d="M79.8 53.859C78.1 53.859 76.4 53.859 74.8 53.859C74.8 47.059 74.8 40.259 74.8 33.559C76.5 33.559 78.1 33.559 79.8 33.559C79.8 34.359 79.8 35.059 79.8 35.859C79.9 35.759 80 35.759 80 35.659C81.4 34.259 83 33.259 85 33.059C87.9 32.759 90.2 33.559 91.9 36.459C91.9 36.559 92 36.559 92 36.659C92.1 36.559 92.1 36.559 92.2 36.459C93.5 34.659 95.2 33.459 97.4 33.159C99.7 32.759 101.9 33.259 103.7 34.859C104.6 35.759 105.2 36.759 105.4 38.059C105.6 39.259 105.7 40.459 105.7 41.759C105.7 44.259 105.7 46.759 105.7 49.159C105.7 50.659 105.6 52.159 105.6 53.659C105.6 53.859 105.5 53.859 105.4 53.859C103.9 53.859 102.4 53.859 100.9 53.859C100.8 53.859 100.7 53.859 100.6 53.859C100.6 53.759 100.6 53.659 100.6 53.559C100.6 50.259 100.6 47.059 100.6 43.759C100.6 42.559 100.6 41.359 100.2 40.159C100 39.559 99.7 38.959 99.2 38.459C98.5 37.859 97.6 37.559 96.6 37.759C94.6 38.059 93.3 39.359 92.9 41.359C92.7 42.159 92.7 42.959 92.7 43.759C92.7 46.859 92.7 49.959 92.7 53.059C92.7 53.359 92.7 53.559 92.7 53.859C91 53.859 89.3 53.859 87.7 53.859C87.7 53.759 87.7 53.659 87.7 53.559C87.7 50.259 87.7 47.059 87.7 43.759C87.7 42.559 87.6 41.359 87.3 40.159C87 39.059 86.3 38.159 85.1 37.859C84.1 37.559 83.2 37.759 82.3 38.159C81 38.859 80.3 39.959 80.1 41.359C79.9 42.259 79.8 43.159 79.8 44.159C79.8 47.359 79.8 50.459 79.8 53.659C79.8 53.659 79.8 53.759 79.8 53.859Z" fill="white"/>
<path d="M67 53.959C67 53.259 67 52.559 67 51.859C66.8 51.959 66.7 52.059 66.6 52.159C65.7 52.959 64.7 53.659 63.6 53.959C60.3 54.959 57.3 54.259 54.7 51.959C52.8 50.259 51.7 48.059 51.4 45.559C51.1 43.159 51.2 40.759 52.3 38.559C53.8 35.559 56.1 33.659 59.4 33.059C59.7 32.959 60.1 33.059 60.4 33.059C62.6 32.859 64.4 33.759 66.1 34.959C66.4 35.159 66.7 35.359 67 35.659C67 35.559 67 35.459 67 35.359C67 34.859 67 34.259 67 33.759C67 33.659 67.1 33.559 67.2 33.559C68.8 33.559 70.3 33.559 71.9 33.559C71.9 33.559 72 33.559 72.1 33.559C72.1 33.659 72.1 33.759 72.1 33.859C72.1 38.359 72.1 42.759 72.1 47.259C72.1 49.359 72.1 51.559 72.1 53.659C72.1 53.859 72 53.959 71.8 53.959C70.3 53.959 68.7 53.959 67.2 53.959C67.2 53.959 67.1 53.959 67 53.959ZM67 43.559C67 43.359 67 43.259 67 43.159C67 41.959 66.7 40.759 66 39.759C64.6 38.059 62.8 37.459 60.7 37.759C59.1 38.059 57.9 38.959 57.2 40.359C56.3 41.959 56.1 43.759 56.6 45.559C57.4 48.359 59.9 50.259 62.9 49.659C64.6 49.359 65.9 48.359 66.6 46.659C67 45.659 67.1 44.559 67 43.559Z" fill="white"/>
<path d="M127.7 49.959C127 51.159 126 52.059 124.9 52.859C123.6 53.759 122.1 54.159 120.5 54.359C118.9 54.559 117.3 54.559 115.7 54.159C112.2 53.259 109.9 51.059 108.6 47.759C108.2 46.859 108.1 45.859 108.1 44.859C108 43.459 108.1 41.959 108.5 40.559C109.5 37.059 111.8 34.659 115.2 33.559C116.2 33.259 117.2 33.159 118.3 33.159C119.8 33.159 121.3 33.259 122.7 33.859C125.9 35.159 127.9 37.559 128.8 40.859C129.2 42.259 129.3 43.659 129.1 45.059C129.1 45.159 129 45.259 128.9 45.259C128.4 45.259 127.8 45.259 127.3 45.259C122.6 45.259 118 45.259 113.3 45.259C113.2 45.259 113.1 45.259 112.9 45.259C112.9 45.459 112.9 45.559 113 45.759C113.5 47.959 115.2 49.659 117.4 50.059C119.7 50.459 121.7 49.859 123.4 48.259C123.5 48.159 123.6 48.159 123.7 48.259C124.9 48.859 126.1 49.359 127.2 49.959C127.3 49.759 127.5 49.859 127.7 49.959ZM113.1 41.159C116.8 41.159 120.4 41.159 124 41.159V41.059C124 40.959 124 40.859 123.9 40.859C123.3 39.359 122.2 38.459 120.8 37.859C119.9 37.459 118.9 37.459 117.9 37.559C115.9 37.759 114.4 38.659 113.5 40.459C113.3 40.559 113.2 40.859 113.1 41.159Z" fill="white"/>
<path d="M127.7 53.859C127.8 53.659 127.9 53.459 128 53.359C129.1 51.859 130.2 50.359 131.3 48.759C132.6 46.959 133.8 45.259 135.1 43.459C135.3 43.159 135.3 43.159 135.1 42.859C132.9 39.859 130.8 36.859 128.6 33.759C128.5 33.659 128.5 33.559 128.4 33.459C128.5 33.459 128.6 33.459 128.7 33.459C130.5 33.459 132.2 33.459 134 33.459C134.2 33.459 134.3 33.459 134.4 33.659C135.5 35.159 136.6 36.659 137.7 38.159C137.9 38.459 138.1 38.659 138.3 38.959C138.4 38.859 138.4 38.759 138.5 38.759C139.7 37.059 140.9 35.359 142.1 33.659C142.2 33.559 142.3 33.459 142.4 33.459C144.2 33.459 145.9 33.459 147.7 33.459C147.8 33.459 147.8 33.459 148 33.459C147.9 33.659 147.8 33.859 147.6 34.059C146.6 35.459 145.6 36.759 144.7 38.159C143.6 39.659 142.5 41.259 141.4 42.759C141.3 42.959 141.3 43.059 141.4 43.259C143.7 46.459 146.1 49.759 148.4 52.959C148.6 53.159 148.7 53.459 148.9 53.659C148.7 53.659 148.7 53.659 148.6 53.659C146.9 53.659 145.1 53.659 143.4 53.659C143.2 53.659 143.1 53.659 143 53.459C141.8 51.759 140.5 50.059 139.3 48.359C139 47.959 138.6 47.459 138.3 46.959C138.2 47.059 138.2 47.159 138.1 47.159C136.6 49.259 135.1 51.259 133.7 53.359C133.6 53.459 133.5 53.559 133.4 53.559C133 53.559 132.7 53.559 132.3 53.559C130.9 53.559 129.6 53.559 128.2 53.559C127.9 53.959 127.8 53.959 127.7 53.859Z" fill="white"/>
<path d="M40.6 53.959C40.6 47.159 40.6 40.359 40.6 33.559C42.2 33.559 43.8 33.559 45.4 33.559C45.4 34.059 45.4 34.659 45.4 35.159C45.4 35.159 45.4 35.159 45.5 35.159C45.7 35.059 45.8 34.859 46 34.759C46.7 34.059 47.6 33.459 48.5 33.159C48.7 33.059 48.8 33.059 49 33.059C49.5 33.059 50.1 33.059 50.6 33.059C51.3 33.059 51.9 33.159 52.5 33.359C52.8 33.459 53.2 33.659 53.6 33.759C53.4 34.059 53.2 34.259 53 34.459C52.3 35.459 51.6 36.359 50.9 37.359C50.7 37.559 50.6 37.659 50.4 37.559C49.6 37.359 48.8 37.359 48 37.659C46.9 38.059 46.4 38.959 46 39.959C45.7 40.859 45.6 41.759 45.6 42.659C45.6 46.259 45.6 49.859 45.6 53.559C45.6 53.859 45.6 53.859 45.3 53.859C43.7 53.959 42.2 53.959 40.6 53.959Z" fill="white"/>
<path d="M82.9 67.159C82.6 67.159 82.4 67.159 82.1 67.159C82.1 67.059 82.1 66.959 82.1 66.859C82.1 65.759 82.1 64.759 82.1 63.659C82.1 63.359 82 62.959 81.9 62.659C81.8 62.159 81.4 61.959 80.9 62.059C80.3 62.159 79.9 62.459 79.5 62.859C79.4 62.859 79.4 63.059 79.4 63.159C79.4 64.059 79.4 64.959 79.4 65.859C79.4 66.259 79.4 66.659 79.4 67.059C79.1 67.059 78.8 67.059 78.5 67.059C78.5 65.259 78.5 63.359 78.5 61.459C78.7 61.459 78.9 61.459 79.1 61.459L79.2 61.559C79.2 61.659 79.3 61.859 79.3 62.059C79.5 61.859 79.8 61.759 80 61.659C80.4 61.359 80.8 61.259 81.3 61.259C81.9 61.359 82.3 61.559 82.6 62.059C82.8 61.959 82.9 61.859 83.1 61.759C83.6 61.359 84.2 61.159 84.9 61.259C85.3 61.359 85.6 61.559 85.9 61.859C86.1 62.159 86.3 62.559 86.3 62.959C86.3 64.259 86.3 65.559 86.3 66.759V66.859C86.1 66.859 85.8 66.859 85.6 66.859C85.6 66.659 85.6 66.459 85.6 66.259C85.6 65.259 85.6 64.259 85.6 63.259C85.6 62.959 85.5 62.559 85.4 62.259C85.2 61.859 84.9 61.759 84.5 61.859C84 61.959 83.5 62.259 83.1 62.559C83 62.559 83 62.759 83 62.859C83 64.059 83 65.359 83 66.559C82.9 66.959 82.9 66.959 82.9 67.159Z" fill="#1C1D1D"/>
<path d="M24.3 67.159C23.8 67.259 23.8 67.259 23.6 66.859C23.2 67.059 22.9 67.259 22.5 67.359C21 67.659 19.8 66.859 19.5 65.359C19.4 64.659 19.4 63.959 19.6 63.259C19.8 62.259 20.6 61.559 21.7 61.559C22.4 61.559 23 61.659 23.6 61.959C23.6 61.059 23.6 60.159 23.6 59.259C23.9 59.259 24.1 59.259 24.4 59.259C24.3 61.759 24.3 64.459 24.3 67.159ZM23.5 64.259C23.5 63.859 23.5 63.359 23.5 62.959C23.5 62.859 23.5 62.859 23.5 62.759C23.5 62.659 23.5 62.559 23.3 62.559C22.9 62.459 22.4 62.259 22 62.159C21.3 62.059 20.7 62.359 20.5 63.159C20.2 64.059 20.2 64.959 20.6 65.759C20.8 66.159 21.1 66.459 21.6 66.559C22.3 66.759 22.9 66.459 23.4 66.159C23.5 66.059 23.6 65.959 23.6 65.859C23.5 65.259 23.5 64.759 23.5 64.259Z" fill="#1C1D1D"/>
<path d="M104.9 61.759C104.9 60.859 104.9 59.959 104.9 59.059C105.2 59.059 105.4 59.059 105.7 59.059C105.7 61.759 105.7 64.359 105.7 67.059C105.4 67.159 105.3 67.059 105 66.759C104.6 67.059 104.1 67.259 103.6 67.259C102 67.359 101.1 66.359 101 64.959C100.9 64.359 100.9 63.759 101.1 63.159C101.4 61.659 102.4 61.059 103.9 61.359C104.1 61.559 104.5 61.659 104.9 61.759ZM104.9 64.359C104.9 64.059 104.9 63.659 104.9 63.359C104.9 62.559 104.9 62.459 104.1 62.259C104 62.259 103.9 62.259 103.9 62.159C102.8 61.959 102.1 62.359 101.8 63.559C101.6 64.359 101.7 65.159 102.1 65.859C102.3 66.259 102.6 66.459 103 66.559C103.6 66.659 104.2 66.459 104.7 66.159C104.9 66.059 104.9 65.959 104.9 65.759C104.8 65.359 104.9 64.859 104.9 64.359Z" fill="#1C1D1D"/>
<path d="M30.5 64.659C29.1 64.659 27.8 64.659 26.3 64.659C26.4 65.059 26.5 65.459 26.6 65.859C26.8 66.359 27.3 66.559 27.7 66.659C28.4 66.759 29.1 66.659 29.6 66.059C29.6 66.059 29.7 65.959 29.8 65.959C30 66.059 30.2 66.059 30.4 66.159C30.2 66.559 29.9 66.859 29.5 67.059C28.6 67.459 27.7 67.459 26.8 67.159C26.2 66.959 25.8 66.359 25.6 65.759C25.4 64.859 25.4 63.959 25.6 63.059C25.8 62.159 26.6 61.559 27.4 61.559C27.9 61.559 28.3 61.559 28.8 61.559C29.5 61.659 30 62.059 30.2 62.759C30.4 63.359 30.5 63.959 30.5 64.659ZM29.5 63.859C29.6 62.759 29.1 62.159 28.2 62.059C28 62.059 27.8 62.059 27.6 62.059C26.7 62.259 26.2 62.959 26.3 63.759C27.4 63.859 28.5 63.859 29.5 63.859Z" fill="#1C1D1D"/>
<path d="M95.8 64.559C95.7 65.359 96 66.059 96.5 66.359C97.2 66.759 98.2 66.659 98.7 66.159C99 65.859 99.3 65.859 99.6 66.059H99.7C99.7 66.059 99.7 66.059 99.8 66.159C99.6 66.359 99.5 66.559 99.3 66.759C98.5 67.459 97.6 67.559 96.7 67.259C95.6 67.059 95 66.259 94.9 65.159C94.9 64.559 94.9 63.859 95 63.259C95.2 62.159 95.9 61.559 96.9 61.459C97.4 61.459 97.9 61.459 98.4 61.459C99 61.559 99.4 61.959 99.6 62.459C99.8 62.959 99.8 63.559 99.9 64.159C99.9 64.259 99.9 64.359 99.9 64.559C98.5 64.559 97.2 64.559 95.8 64.559ZM99 63.859C98.9 63.459 98.9 63.159 98.8 62.759C98.7 62.459 98.5 62.259 98.2 62.159C97.6 61.959 97 61.959 96.5 62.259C96 62.559 95.7 63.259 95.8 63.759C96.9 63.859 97.9 63.859 99 63.859Z" fill="#1C1D1D"/>
<path d="M47.5 64.559C46.1 64.559 44.8 64.559 43.4 64.559C43.4 65.959 44 66.759 45.5 66.559C45.9 66.459 46.3 66.259 46.6 65.959C46.6 65.959 46.7 65.859 46.8 65.859C47 65.959 47.2 65.959 47.4 66.059C47.2 66.459 46.9 66.759 46.6 66.959C45.6 67.559 44.2 67.459 43.3 66.759C43 66.559 42.9 66.359 42.8 66.059C42.5 65.259 42.4 64.459 42.5 63.659C42.6 63.259 42.6 62.859 42.8 62.459C43.1 61.859 43.6 61.459 44.3 61.459C44.8 61.459 45.2 61.459 45.7 61.459C46.5 61.559 47 62.059 47.2 62.759C47.5 63.359 47.5 63.959 47.5 64.559ZM43.4 63.859C44.5 63.859 45.5 63.859 46.6 63.859C46.7 62.759 46.3 62.159 45.4 62.059C44.8 61.959 44.3 62.059 43.9 62.559C43.5 62.959 43.4 63.359 43.4 63.859Z" fill="#1C1D1D"/>
<path d="M54.6 66.159C54.7 65.959 54.8 65.759 54.8 65.559C55.3 64.359 55.7 63.059 56.2 61.859C56.3 61.659 56.3 61.559 56.5 61.659C56.7 61.659 56.9 61.659 57.1 61.659C57.1 61.759 57 61.859 57 61.959C56.1 64.259 55.2 66.659 54.4 68.959C54.3 69.159 54.2 69.259 54 69.259C53.4 69.259 52.9 69.259 52.3 69.259C52.2 69.259 52.1 69.259 52 69.259C52.1 69.059 52.3 69.059 52.5 69.059C52.7 69.059 52.9 69.059 53.1 69.059C53.4 69.059 53.6 68.959 53.7 68.659C53.7 68.659 53.7 68.559 53.8 68.559C54.2 67.959 54.2 67.259 53.9 66.559C53.3 65.059 52.8 63.559 52.2 62.059C52.2 61.959 52.1 61.859 52.1 61.659C52.4 61.659 52.6 61.659 52.8 61.659C52.9 61.659 52.9 61.759 53 61.859C53.5 63.259 54 64.659 54.6 66.159C54.5 66.059 54.5 65.959 54.6 66.159Z" fill="#1C1D1D"/>
<path d="M66.7 61.559C66.8 61.559 66.8 61.559 66.7 61.559C67.3 61.459 67.3 61.459 67.4 61.959C67.4 61.959 67.4 62.059 67.5 62.159C67.7 62.059 68 61.859 68.2 61.759C68.7 61.459 69.2 61.359 69.8 61.459C70.8 61.659 71.3 62.259 71.3 63.259C71.3 64.459 71.3 65.659 71.3 66.959C71.3 67.159 71.2 67.159 71.1 67.159C70.9 67.159 70.7 67.159 70.5 67.159C70.5 67.059 70.5 66.959 70.5 66.859C70.5 65.759 70.5 64.559 70.5 63.459C70.5 63.159 70.4 62.959 70.3 62.659C70.1 62.259 69.7 62.059 69.2 62.159C68.6 62.259 68 62.559 67.5 62.959C67.4 62.959 67.4 63.159 67.4 63.159C67.4 64.159 67.4 65.159 67.4 66.159C67.4 66.459 67.4 66.859 67.4 67.159C67.1 67.159 66.9 67.159 66.6 67.159C66.7 65.259 66.7 63.459 66.7 61.559Z" fill="#1C1D1D"/>
<path d="M65.3 67.159C65.1 67.159 64.9 67.159 64.7 67.159C64.6 66.959 64.6 66.759 64.5 66.559C64.2 66.759 64 66.859 63.7 67.059C63.1 67.359 62.5 67.459 61.8 67.259C61.1 67.059 60.7 66.459 60.7 65.759C60.6 64.359 60.7 62.959 60.7 61.559C61 61.559 61.2 61.559 61.5 61.559C61.5 61.959 61.5 62.359 61.5 62.759C61.5 63.459 61.5 64.159 61.5 64.859C61.5 65.159 61.6 65.459 61.6 65.759C61.7 66.359 62.2 66.759 62.9 66.559C63.5 66.459 63.9 66.159 64.4 65.759C64.5 65.759 64.5 65.559 64.5 65.559C64.5 64.359 64.5 63.059 64.5 61.859C64.5 61.759 64.5 61.659 64.5 61.559C64.8 61.559 65 61.559 65.3 61.559C65.3 63.459 65.3 65.259 65.3 67.159Z" fill="#1C1D1D"/>
<path d="M91.9 59.459C91.9 60.159 91.9 60.859 91.9 61.559C92.6 61.559 93.2 61.559 94 61.559C93.9 61.859 93.8 62.059 93.7 62.259C93.7 62.259 93.6 62.359 93.5 62.359C93 62.359 92.5 62.359 91.9 62.359C91.9 63.659 91.9 64.859 91.9 66.059C91.9 66.359 92.2 66.559 92.6 66.559C92.9 66.559 93.2 66.459 93.6 66.359C93.7 66.359 93.8 66.359 93.8 66.359C93.9 66.459 94 66.659 94.1 66.759C94.1 66.759 94 66.859 93.9 66.859C93.3 67.159 92.7 67.259 92 67.059C91.3 66.959 91 66.459 91 65.859C91 64.759 91 63.559 91 62.459C91 62.359 91 62.259 91 62.159C90.7 62.159 90.4 62.159 90.1 62.159C90.1 61.859 90.1 61.659 90.1 61.359C90.3 61.359 90.6 61.359 90.8 61.359C91 61.359 91.1 61.259 91.1 61.059C91.1 60.659 91.1 60.159 91.1 59.759C91.1 59.459 91.2 59.359 91.4 59.359C91.7 59.559 91.8 59.459 91.9 59.459Z" fill="#1C1D1D"/>
<path d="M42 61.559C41.6 62.559 41.2 63.559 40.9 64.559C40.6 65.359 40.3 66.159 40 66.959C39.9 67.159 39.9 67.159 39.7 67.159C39.5 67.159 39.1 67.259 39 67.059C38.8 66.959 38.8 66.659 38.7 66.459C38.1 64.859 37.5 63.359 36.9 61.759V61.659C37.7 61.559 37.7 61.559 38 62.359C38.3 63.359 38.7 64.259 39.1 65.259C39.2 65.659 39.3 65.959 39.4 66.459C39.6 65.859 39.9 65.159 40.1 64.559C40.4 63.659 40.7 62.859 41 61.959C41.1 61.759 41.2 61.759 41.3 61.759C41.6 61.559 41.8 61.559 42 61.559Z" fill="#1C1D1D"/>
<path d="M33.6 66.559C33.6 66.659 33.6 66.759 33.6 66.859C33.6 67.259 33.6 67.259 33.2 67.259C32.6 67.259 32.1 66.859 32 66.359C32 66.159 32 65.959 32 65.759C32 63.859 32 61.959 32 60.159C32 60.059 32 59.959 32 59.859C31.7 59.859 31.4 59.859 31.1 59.859C31.1 59.659 31.1 59.459 31.1 59.159C31.6 59.159 32.2 59.159 32.8 59.159C32.8 59.259 32.8 59.359 32.8 59.459C32.8 61.059 32.8 62.659 32.8 64.359C32.8 64.859 32.8 65.459 32.8 65.959C32.8 66.359 33 66.559 33.4 66.659C33.4 66.559 33.5 66.559 33.6 66.559Z" fill="#1C1D1D"/>
<path d="M73 59.859C72.8 59.859 72.7 59.859 72.5 59.859C72.4 59.859 72.2 59.859 72.1 59.859C72.1 59.659 72.1 59.459 72.1 59.159C72.6 59.159 73.2 59.159 73.8 59.159C73.8 59.259 73.8 59.359 73.8 59.459C73.8 60.559 73.8 61.759 73.8 62.859C73.8 63.859 73.8 64.759 73.8 65.759C73.8 66.359 74 66.559 74.6 66.559H74.7C74.7 66.659 74.7 66.759 74.7 66.859C74.7 67.259 74.7 67.259 74.3 67.259C74.1 67.259 73.8 67.159 73.6 67.059C73.3 66.859 73.1 66.659 73.1 66.259C73.1 64.459 73.1 62.559 73.1 60.759C73 60.459 73 60.159 73 59.859Z" fill="#1C1D1D"/>
<path d="M51.5 62.259C50.9 62.259 50.4 62.259 49.9 62.659C49.7 62.859 49.5 63.059 49.5 63.359C49.5 64.559 49.5 65.759 49.5 66.959C49.5 67.059 49.5 67.159 49.5 67.259C49.2 67.259 48.9 67.259 48.6 67.259C48.6 65.359 48.6 63.559 48.6 61.659C48.8 61.659 49 61.659 49.2 61.659L49.3 61.759C49.3 61.859 49.3 61.959 49.4 62.159C49.5 62.059 49.6 62.059 49.6 61.959C50 61.759 50.3 61.659 50.7 61.459C51.2 61.359 51.4 61.459 51.4 62.059C51.5 62.059 51.5 62.159 51.5 62.259Z" fill="#1C1D1D"/>
<path d="M76.8 61.559C76.8 61.659 76.8 61.759 76.8 61.859C76.8 63.159 76.8 64.459 76.8 65.759C76.8 65.859 76.8 65.859 76.8 65.959C76.8 66.359 76.9 66.459 77.2 66.559C77.3 66.559 77.4 66.559 77.5 66.659C77.5 66.859 77.5 67.059 77.5 67.359C77.2 67.359 76.9 67.259 76.5 67.259C76.3 67.159 76.1 67.059 76 66.759C75.9 66.359 75.8 66.059 75.8 65.659C75.8 64.859 75.8 64.159 75.8 63.359C75.8 63.059 75.8 62.759 75.9 62.459C75.7 62.259 75.4 62.359 75.1 62.359C75.1 62.159 75.1 61.959 75.1 61.659C75.7 61.559 76.2 61.559 76.8 61.559Z" fill="#1C1D1D"/>
<path d="M35 62.259C34.8 62.259 34.7 62.259 34.6 62.259C34.5 62.259 34.3 62.259 34.2 62.259C34.2 62.059 34.2 61.859 34.2 61.559C34.7 61.559 35.3 61.559 35.9 61.559C35.9 61.659 35.9 61.759 35.9 61.859C35.9 63.259 35.9 64.559 35.9 65.959C35.9 66.359 36 66.459 36.4 66.559C36.5 66.559 36.6 66.559 36.7 66.659V66.759C36.7 67.359 36.8 67.359 36.1 67.359C35.4 67.259 35 66.959 35.1 66.159C35 64.859 35 63.559 35 62.259Z" fill="#1C1D1D"/>
<path d="M89.7 66.559C89.7 66.659 89.7 66.759 89.7 66.859C89.7 67.259 89.7 67.259 89.3 67.159C89.1 67.159 88.8 67.059 88.6 66.959C88.2 66.859 88.1 66.559 88 66.159C88 64.959 88 63.759 88 62.459C88 62.359 88 62.259 88 62.159C87.7 62.159 87.4 62.159 87.1 62.159C87.1 61.959 87.1 61.659 87.1 61.459C87.6 61.459 88.2 61.459 88.8 61.459C88.8 61.659 88.8 61.859 88.8 62.059C88.8 63.259 88.8 64.459 88.8 65.659C88.8 66.159 89 66.359 89.5 66.459C89.6 66.559 89.6 66.559 89.7 66.559Z" fill="#1C1D1D"/>
<path d="M75.8 59.159C76.1 59.159 76.4 59.159 76.8 59.159C76.8 59.459 76.8 59.759 76.8 60.059C76.5 60.059 76.2 60.059 75.8 60.059C75.8 59.759 75.8 59.459 75.8 59.159Z" fill="#1C1D1D"/>
<path d="M88.8 60.059C88.5 60.059 88.2 60.059 87.8 60.059C87.8 59.759 87.8 59.459 87.8 59.059C88.1 59.059 88.4 59.059 88.8 59.059C88.8 59.459 88.8 59.759 88.8 60.059Z" fill="#1C1D1D"/>
<path d="M34.8 59.159C35.1 59.159 35.4 59.159 35.8 59.159C35.8 59.459 35.8 59.759 35.8 60.159C35.5 60.159 35.2 60.159 34.8 60.159C34.8 59.759 34.8 59.459 34.8 59.159Z" fill="#1C1D1D"/>
</svg>
