<?xml version="1.0" encoding="utf-8"?>
<!-- Generator: Adobe Illustrator 23.0.2, SVG Export Plug-In . SVG Version: 6.00 Build 0)  -->
<svg version="1.1" id="Layer_1" xmlns="http://www.w3.org/2000/svg" xmlns:xlink="http://www.w3.org/1999/xlink" x="0px" y="0px"
	 viewBox="0 0 167 102.5" style="enable-background:new 0 0 167 102.5;" xml:space="preserve">
<style type="text/css">
	.st0{fill:#E93329;}
	.st1{fill:#FFFFFF;}
	.st2{fill:#1C1D1D;}
</style>
<g>
	<path class="st0" d="M19,11.5h129c5.5,0,10,4.5,10,10V81c0,5.5-4.5,10-10,10H19c-5.5,0-10-4.5-10-10V21.5C9,16,13.5,11.5,19,11.5z"
		/>
</g>
<g>
	<path class="st1" d="M17.6,42.8c0.1-0.4,0.2-0.8,0.2-1.3c0.6-3.3,2.3-5.7,5.2-7.3c0.8-0.5,1.7-0.7,2.7-0.8c2.3-0.3,4.4,0.1,6.3,1.5
		c0.4,0.3,0.8,0.6,1.1,0.9c0.1,0,0.1,0.1,0.2,0.2c0-0.7,0-1.4,0-2.1c1.7,0,3.4,0,5,0c0,6.8,0,13.5,0,20.3c-1.7,0-3.3,0-5,0
		c0-0.7,0-1.3,0-2c-0.1,0.1-0.2,0.1-0.2,0.2c-0.5,0.4-1.1,0.9-1.6,1.2c-1.1,0.7-2.4,1.1-3.7,1.2c-1.6,0.1-3.1-0.2-4.5-0.9
		c-1.2-0.6-2.3-1.5-3.2-2.6c-1.3-1.5-2.1-3.2-2.3-5.1c0-0.3-0.1-0.6-0.2-0.9C17.6,44.4,17.6,43.6,17.6,42.8z M22.7,43.8
		c0,2,0.6,3.6,1.8,4.8c1.3,1.3,3,1.7,4.7,1.3c1.9-0.4,3.2-1.5,3.8-3.4c0.3-1.1,0.4-2.1,0.4-3.3c0-0.9-0.2-1.7-0.6-2.5
		c-0.9-1.7-2.4-2.6-4.3-2.8c-2-0.2-3.6,0.6-4.7,2.2C23,41.3,22.7,42.5,22.7,43.8z"/>
	<path class="st1" d="M80.4,54.1c-1.7,0-3.4,0-5,0c0-6.8,0-13.6,0-20.3c1.7,0,3.3,0,5,0c0,0.8,0,1.5,0,2.3c0.1-0.1,0.2-0.1,0.2-0.2
		c1.4-1.4,3-2.4,5-2.6c2.9-0.3,5.2,0.5,6.9,3.4c0,0.1,0.1,0.1,0.1,0.2c0.1-0.1,0.1-0.1,0.2-0.2c1.3-1.8,3-3,5.2-3.3
		c2.3-0.4,4.5,0.1,6.3,1.7c0.9,0.9,1.5,1.9,1.7,3.2c0.2,1.2,0.3,2.4,0.3,3.7c0,2.5,0,5,0,7.4c0,1.5-0.1,3-0.1,4.5
		c0,0.2-0.1,0.2-0.2,0.2c-1.5,0-3,0-4.5,0c-0.1,0-0.2,0-0.3,0c0-0.1,0-0.2,0-0.3c0-3.3,0-6.5,0-9.8c0-1.2,0-2.4-0.4-3.6
		c-0.2-0.6-0.5-1.2-1-1.7c-0.7-0.6-1.6-0.9-2.6-0.7c-2,0.3-3.3,1.6-3.7,3.6c-0.2,0.8-0.2,1.6-0.2,2.4c0,3.1,0,6.2,0,9.3
		c0,0.3,0,0.5,0,0.8c-1.7,0-3.4,0-5,0c0-0.1,0-0.2,0-0.3c0-3.3,0-6.5,0-9.8c0-1.2-0.1-2.4-0.4-3.6c-0.3-1.1-1-2-2.2-2.3
		c-1-0.3-1.9-0.1-2.8,0.3c-1.3,0.7-2,1.8-2.2,3.2c-0.2,0.9-0.3,1.8-0.3,2.8c0,3.2,0,6.3,0,9.5C80.4,53.9,80.4,54,80.4,54.1z"/>
	<path class="st1" d="M67.6,54.2c0-0.7,0-1.4,0-2.1c-0.2,0.1-0.3,0.2-0.4,0.3c-0.9,0.8-1.9,1.5-3,1.8c-3.3,1-6.3,0.3-8.9-2
		c-1.9-1.7-3-3.9-3.3-6.4c-0.3-2.4-0.2-4.8,0.9-7c1.5-3,3.8-4.9,7.1-5.5c0.3-0.1,0.7,0,1,0c2.2-0.2,4,0.7,5.7,1.9
		c0.3,0.2,0.6,0.4,0.9,0.7c0-0.1,0-0.2,0-0.3c0-0.5,0-1.1,0-1.6c0-0.1,0.1-0.2,0.2-0.2c1.6,0,3.1,0,4.7,0c0,0,0.1,0,0.2,0
		c0,0.1,0,0.2,0,0.3c0,4.5,0,8.9,0,13.4c0,2.1,0,4.3,0,6.4c0,0.2-0.1,0.3-0.3,0.3c-1.5,0-3.1,0-4.6,0C67.8,54.2,67.7,54.2,67.6,54.2
		z M67.6,43.8c0-0.2,0-0.3,0-0.4c0-1.2-0.3-2.4-1-3.4c-1.4-1.7-3.2-2.3-5.3-2c-1.6,0.3-2.8,1.2-3.5,2.6c-0.9,1.6-1.1,3.4-0.6,5.2
		c0.8,2.8,3.3,4.7,6.3,4.1c1.7-0.3,3-1.3,3.7-3C67.6,45.9,67.7,44.8,67.6,43.8z"/>
	<path class="st1" d="M128.3,50.2c-0.7,1.2-1.7,2.1-2.8,2.9c-1.3,0.9-2.8,1.3-4.4,1.5c-1.6,0.2-3.2,0.2-4.8-0.2
		c-3.5-0.9-5.8-3.1-7.1-6.4c-0.4-0.9-0.5-1.9-0.5-2.9c-0.1-1.4,0-2.9,0.4-4.3c1-3.5,3.3-5.9,6.7-7c1-0.3,2-0.4,3.1-0.4
		c1.5,0,3,0.1,4.4,0.7c3.2,1.3,5.2,3.7,6.1,7c0.4,1.4,0.5,2.8,0.3,4.2c0,0.1-0.1,0.2-0.2,0.2c-0.5,0-1.1,0-1.6,0c-4.7,0-9.3,0-14,0
		c-0.1,0-0.2,0-0.4,0c0,0.2,0,0.3,0.1,0.5c0.5,2.2,2.2,3.9,4.4,4.3c2.3,0.4,4.3-0.2,6-1.8c0.1-0.1,0.2-0.1,0.3,0
		c1.2,0.6,2.4,1.1,3.5,1.7C127.9,50,128.1,50.1,128.3,50.2z M113.7,41.4c3.7,0,7.3,0,10.9,0v-0.1c0-0.1,0-0.2-0.1-0.2
		c-0.6-1.5-1.7-2.4-3.1-3c-0.9-0.4-1.9-0.4-2.9-0.3c-2,0.2-3.5,1.1-4.4,2.9C113.9,40.8,113.8,41.1,113.7,41.4z"/>
	<path class="st1" d="M128.3,54.1c0.1-0.2,0.2-0.4,0.3-0.5c1.1-1.5,2.2-3,3.3-4.6c1.3-1.8,2.5-3.5,3.8-5.3c0.2-0.3,0.2-0.3,0-0.6
		c-2.2-3-4.3-6-6.5-9.1c-0.1-0.1-0.1-0.2-0.2-0.3c0.1,0,0.2,0,0.3,0c1.8,0,3.5,0,5.3,0c0.2,0,0.3,0,0.4,0.2c1.1,1.5,2.2,3,3.3,4.5
		c0.2,0.3,0.4,0.5,0.6,0.8c0.1-0.1,0.1-0.2,0.2-0.2c1.2-1.7,2.4-3.4,3.6-5.1c0.1-0.1,0.2-0.2,0.3-0.2c1.8,0,3.5,0,5.3,0
		c0.1,0,0.1,0,0.3,0c-0.1,0.2-0.2,0.4-0.4,0.6c-1,1.4-2,2.7-2.9,4.1c-1.1,1.5-2.2,3.1-3.3,4.6c-0.1,0.2-0.1,0.3,0,0.5
		c2.3,3.2,4.7,6.5,7,9.7c0.2,0.2,0.3,0.5,0.5,0.7c-0.2,0-0.2,0-0.3,0c-1.7,0-3.5,0-5.2,0c-0.2,0-0.3,0-0.4-0.2
		c-1.2-1.7-2.5-3.4-3.7-5.1c-0.3-0.4-0.7-0.9-1-1.4c-0.1,0.1-0.1,0.2-0.2,0.2c-1.5,2.1-3,4.1-4.4,6.2c-0.1,0.1-0.2,0.2-0.3,0.2
		c-0.4,0-0.7,0-1.1,0c-1.4,0-2.7,0-4.1,0C128.5,54.2,128.4,54.2,128.3,54.1z"/>
	<path class="st1" d="M41.2,54.2c0-6.8,0-13.6,0-20.4c1.6,0,3.2,0,4.8,0c0,0.5,0,1.1,0,1.6c0,0,0,0,0.1,0c0.2-0.1,0.3-0.3,0.5-0.4
		c0.7-0.7,1.6-1.3,2.5-1.6c0.2-0.1,0.3-0.1,0.5-0.1c0.5,0,1.1,0,1.6,0c0.7,0,1.3,0.1,1.9,0.3c0.3,0.1,0.7,0.3,1.1,0.4
		c-0.2,0.3-0.4,0.5-0.6,0.7c-0.7,1-1.4,1.9-2.1,2.9c-0.2,0.2-0.3,0.3-0.5,0.2c-0.8-0.2-1.6-0.2-2.4,0.1c-1.1,0.4-1.6,1.3-2,2.3
		c-0.3,0.9-0.4,1.8-0.4,2.7c0,3.6,0,7.2,0,10.9c0,0.3,0,0.3-0.3,0.3C44.3,54.2,42.8,54.2,41.2,54.2z"/>
	<path class="st2" d="M83.5,67.4c-0.3,0-0.5,0-0.8,0c0-0.1,0-0.2,0-0.3c0-1.1,0-2.1,0-3.2c0-0.3-0.1-0.7-0.2-1
		c-0.1-0.5-0.5-0.7-1-0.6c-0.6,0.1-1,0.4-1.4,0.8c-0.1,0-0.1,0.2-0.1,0.3c0,0.9,0,1.8,0,2.7c0,0.4,0,0.8,0,1.2c-0.3,0-0.6,0-0.9,0
		c0-1.8,0-3.7,0-5.6c0.2,0,0.4,0,0.6,0l0.1,0.1c0,0.1,0.1,0.3,0.1,0.5c0.2-0.2,0.5-0.3,0.7-0.4c0.4-0.3,0.8-0.4,1.3-0.4
		c0.6,0.1,1,0.3,1.3,0.8c0.2-0.1,0.3-0.2,0.5-0.3c0.5-0.4,1.1-0.6,1.8-0.5c0.4,0.1,0.7,0.3,1,0.6c0.2,0.3,0.4,0.7,0.4,1.1
		c0,1.3,0,2.6,0,3.8v0.1c-0.2,0-0.5,0-0.7,0c0-0.2,0-0.4,0-0.6c0-1,0-2,0-3c0-0.3-0.1-0.7-0.2-1c-0.2-0.4-0.5-0.5-0.9-0.4
		c-0.5,0.1-1,0.4-1.4,0.7c-0.1,0-0.1,0.2-0.1,0.3c0,1.2,0,2.5,0,3.7C83.5,67.2,83.5,67.2,83.5,67.4z"/>
	<path class="st2" d="M24.9,67.4c-0.5,0.1-0.5,0.1-0.7-0.3c-0.4,0.2-0.7,0.4-1.1,0.5c-1.5,0.3-2.7-0.5-3-2c-0.1-0.7-0.1-1.4,0.1-2.1
		c0.2-1,1-1.7,2.1-1.7c0.7,0,1.3,0.1,1.9,0.4c0-0.9,0-1.8,0-2.7c0.3,0,0.5,0,0.8,0C24.9,62,24.9,64.7,24.9,67.4z M24.1,64.5
		c0-0.4,0-0.9,0-1.3c0-0.1,0-0.1,0-0.2c0-0.1,0-0.2-0.2-0.2c-0.4-0.1-0.9-0.3-1.3-0.4c-0.7-0.1-1.3,0.2-1.5,1
		c-0.3,0.9-0.3,1.8,0.1,2.6c0.2,0.4,0.5,0.7,1,0.8c0.7,0.2,1.3-0.1,1.8-0.4c0.1-0.1,0.2-0.2,0.2-0.3C24.1,65.5,24.1,65,24.1,64.5z"
		/>
	<path class="st2" d="M105.5,62c0-0.9,0-1.8,0-2.7c0.3,0,0.5,0,0.8,0c0,2.7,0,5.3,0,8c-0.3,0.1-0.4,0-0.7-0.3
		c-0.4,0.3-0.9,0.5-1.4,0.5c-1.6,0.1-2.5-0.9-2.6-2.3c-0.1-0.6-0.1-1.2,0.1-1.8c0.3-1.5,1.3-2.1,2.8-1.8
		C104.7,61.8,105.1,61.9,105.5,62z M105.5,64.6c0-0.3,0-0.7,0-1c0-0.8,0-0.9-0.8-1.1c-0.1,0-0.2,0-0.2-0.1c-1.1-0.2-1.8,0.2-2.1,1.4
		c-0.2,0.8-0.1,1.6,0.3,2.3c0.2,0.4,0.5,0.6,0.9,0.7c0.6,0.1,1.2-0.1,1.7-0.4c0.2-0.1,0.2-0.2,0.2-0.4
		C105.4,65.6,105.5,65.1,105.5,64.6z"/>
	<path class="st2" d="M31.1,64.9c-1.4,0-2.7,0-4.2,0c0.1,0.4,0.2,0.8,0.3,1.2c0.2,0.5,0.7,0.7,1.1,0.8c0.7,0.1,1.4,0,1.9-0.6
		c0,0,0.1-0.1,0.2-0.1c0.2,0.1,0.4,0.1,0.6,0.2c-0.2,0.4-0.5,0.7-0.9,0.9c-0.9,0.4-1.8,0.4-2.7,0.1c-0.6-0.2-1-0.8-1.2-1.4
		c-0.2-0.9-0.2-1.8,0-2.7c0.2-0.9,1-1.5,1.8-1.5c0.5,0,0.9,0,1.4,0c0.7,0.1,1.2,0.5,1.4,1.2C31,63.6,31.1,64.2,31.1,64.9z
		 M30.1,64.1c0.1-1.1-0.4-1.7-1.3-1.8c-0.2,0-0.4,0-0.6,0c-0.9,0.2-1.4,0.9-1.3,1.7C28,64.1,29.1,64.1,30.1,64.1z"/>
	<path class="st2" d="M96.4,64.8c-0.1,0.8,0.2,1.5,0.7,1.8c0.7,0.4,1.7,0.3,2.2-0.2c0.3-0.3,0.6-0.3,0.9-0.1h0.1c0,0,0,0,0.1,0.1
		c-0.2,0.2-0.3,0.4-0.5,0.6c-0.8,0.7-1.7,0.8-2.6,0.5c-1.1-0.2-1.7-1-1.8-2.1c0-0.6,0-1.3,0.1-1.9c0.2-1.1,0.9-1.7,1.9-1.8
		c0.5,0,1,0,1.5,0c0.6,0.1,1,0.5,1.2,1s0.2,1.1,0.3,1.7c0,0.1,0,0.2,0,0.4C99.1,64.8,97.8,64.8,96.4,64.8z M99.6,64.1
		c-0.1-0.4-0.1-0.7-0.2-1.1c-0.1-0.3-0.3-0.5-0.6-0.6c-0.6-0.2-1.2-0.2-1.7,0.1s-0.8,1-0.7,1.5C97.5,64.1,98.5,64.1,99.6,64.1z"/>
	<path class="st2" d="M48.1,64.8c-1.4,0-2.7,0-4.1,0c0,1.4,0.6,2.2,2.1,2c0.4-0.1,0.8-0.3,1.1-0.6c0,0,0.1-0.1,0.2-0.1
		c0.2,0.1,0.4,0.1,0.6,0.2c-0.2,0.4-0.5,0.7-0.8,0.9c-1,0.6-2.4,0.5-3.3-0.2c-0.3-0.2-0.4-0.4-0.5-0.7c-0.3-0.8-0.4-1.6-0.3-2.4
		c0.1-0.4,0.1-0.8,0.3-1.2c0.3-0.6,0.8-1,1.5-1c0.5,0,0.9,0,1.4,0c0.8,0.1,1.3,0.6,1.5,1.3C48.1,63.6,48.1,64.2,48.1,64.8z M44,64.1
		c1.1,0,2.1,0,3.2,0c0.1-1.1-0.3-1.7-1.2-1.8c-0.6-0.1-1.1,0-1.5,0.5C44.1,63.2,44,63.6,44,64.1z"/>
	<path class="st2" d="M55.2,66.4c0.1-0.2,0.2-0.4,0.2-0.6c0.5-1.2,0.9-2.5,1.4-3.7c0.1-0.2,0.1-0.3,0.3-0.2c0.2,0,0.4,0,0.6,0
		c0,0.1-0.1,0.2-0.1,0.3c-0.9,2.3-1.8,4.7-2.6,7c-0.1,0.2-0.2,0.3-0.4,0.3c-0.6,0-1.1,0-1.7,0c-0.1,0-0.2,0-0.3,0
		c0.1-0.2,0.3-0.2,0.5-0.2c0.2,0,0.4,0,0.6,0c0.3,0,0.5-0.1,0.6-0.4c0,0,0-0.1,0.1-0.1c0.4-0.6,0.4-1.3,0.1-2
		c-0.6-1.5-1.1-3-1.7-4.5c0-0.1-0.1-0.2-0.1-0.4c0.3,0,0.5,0,0.7,0c0.1,0,0.1,0.1,0.2,0.2C54.1,63.5,54.6,64.9,55.2,66.4
		C55.1,66.2,55.1,66.3,55.2,66.4z"/>
	<path class="st2" d="M67.3,61.8C67.4,61.8,67.4,61.8,67.3,61.8c0.6-0.1,0.6-0.1,0.7,0.4c0,0,0,0.1,0.1,0.2c0.2-0.1,0.5-0.3,0.7-0.4
		c0.5-0.3,1-0.4,1.6-0.3c1,0.2,1.5,0.8,1.5,1.8c0,1.2,0,2.4,0,3.7c0,0.2-0.1,0.2-0.2,0.2c-0.2,0-0.4,0-0.6,0c0-0.1,0-0.2,0-0.3
		c0-1.1,0-2.3,0-3.4c0-0.3-0.1-0.5-0.2-0.8c-0.2-0.4-0.6-0.6-1.1-0.5c-0.6,0.1-1.2,0.4-1.7,0.8c-0.1,0-0.1,0.2-0.1,0.2c0,1,0,2,0,3
		c0,0.3,0,0.7,0,1c-0.3,0-0.5,0-0.8,0C67.3,65.5,67.3,63.7,67.3,61.8z"/>
	<path class="st2" d="M65.9,67.4c-0.2,0-0.4,0-0.6,0c-0.1-0.2-0.1-0.4-0.2-0.6c-0.3,0.2-0.5,0.3-0.8,0.5c-0.6,0.3-1.2,0.4-1.9,0.2
		c-0.7-0.2-1.1-0.8-1.1-1.5c-0.1-1.4,0-2.8,0-4.2c0.3,0,0.5,0,0.8,0c0,0.4,0,0.8,0,1.2c0,0.7,0,1.4,0,2.1c0,0.3,0.1,0.6,0.1,0.9
		c0.1,0.6,0.6,1,1.3,0.8c0.6-0.1,1-0.4,1.5-0.8c0.1,0,0.1-0.2,0.1-0.2c0-1.2,0-2.5,0-3.7c0-0.1,0-0.2,0-0.3c0.3,0,0.5,0,0.8,0
		C65.9,63.7,65.9,65.5,65.9,67.4z"/>
	<path class="st2" d="M92.5,59.7c0,0.7,0,1.4,0,2.1c0.7,0,1.3,0,2.1,0c-0.1,0.3-0.2,0.5-0.3,0.7c0,0-0.1,0.1-0.2,0.1
		c-0.5,0-1,0-1.6,0c0,1.3,0,2.5,0,3.7c0,0.3,0.3,0.5,0.7,0.5c0.3,0,0.6-0.1,1-0.2c0.1,0,0.2,0,0.2,0c0.1,0.1,0.2,0.3,0.3,0.4
		c0,0-0.1,0.1-0.2,0.1c-0.6,0.3-1.2,0.4-1.9,0.2c-0.7-0.1-1-0.6-1-1.2c0-1.1,0-2.3,0-3.4c0-0.1,0-0.2,0-0.3c-0.3,0-0.6,0-0.9,0
		c0-0.3,0-0.5,0-0.8c0.2,0,0.5,0,0.7,0s0.3-0.1,0.3-0.3c0-0.4,0-0.9,0-1.3c0-0.3,0.1-0.4,0.3-0.4C92.3,59.8,92.4,59.7,92.5,59.7z"/>
	<path class="st2" d="M42.6,61.8c-0.4,1-0.8,2-1.1,3c-0.3,0.8-0.6,1.6-0.9,2.4c-0.1,0.2-0.1,0.2-0.3,0.2s-0.6,0.1-0.7-0.1
		c-0.2-0.1-0.2-0.4-0.3-0.6c-0.6-1.6-1.2-3.1-1.8-4.7v-0.1l0,0c0.8-0.1,0.8-0.1,1.1,0.7c0.3,1,0.7,1.9,1.1,2.9
		c0.1,0.4,0.2,0.7,0.3,1.2c0.2-0.6,0.5-1.3,0.7-1.9c0.3-0.9,0.6-1.7,0.9-2.6c0.1-0.2,0.2-0.2,0.3-0.2C42.2,61.8,42.4,61.8,42.6,61.8
		z"/>
	<path class="st2" d="M34.2,66.8c0,0.1,0,0.2,0,0.3c0,0.4,0,0.4-0.4,0.4c-0.6,0-1.1-0.4-1.2-0.9c0-0.2,0-0.4,0-0.6
		c0-1.9,0-3.8,0-5.6c0-0.1,0-0.2,0-0.3c-0.3,0-0.6,0-0.9,0c0-0.2,0-0.4,0-0.7c0.5,0,1.1,0,1.7,0c0,0.1,0,0.2,0,0.3
		c0,1.6,0,3.2,0,4.9c0,0.5,0,1.1,0,1.6c0,0.4,0.2,0.6,0.6,0.7C34,66.8,34.1,66.8,34.2,66.8z"/>
	<path class="st2" d="M73.6,60.1c-0.2,0-0.3,0-0.5,0c-0.1,0-0.3,0-0.4,0c0-0.2,0-0.4,0-0.7c0.5,0,1.1,0,1.7,0c0,0.1,0,0.2,0,0.3
		c0,1.1,0,2.3,0,3.4c0,1,0,1.9,0,2.9c0,0.6,0.2,0.8,0.8,0.8h0.1c0,0.1,0,0.2,0,0.3c0,0.4,0,0.4-0.4,0.4c-0.2,0-0.5-0.1-0.7-0.2
		c-0.3-0.2-0.5-0.4-0.5-0.8c0-1.8,0-3.7,0-5.5C73.6,60.7,73.6,60.4,73.6,60.1z"/>
	<path class="st2" d="M52.1,62.5c-0.6,0-1.1,0-1.6,0.4c-0.2,0.2-0.4,0.4-0.4,0.7c0,1.2,0,2.4,0,3.6c0,0.1,0,0.2,0,0.3
		c-0.3,0-0.6,0-0.9,0c0-1.9,0-3.7,0-5.6c0.2,0,0.4,0,0.6,0l0.1,0.1c0,0.1,0,0.2,0.1,0.4c0.1-0.1,0.2-0.1,0.2-0.2
		c0.4-0.2,0.7-0.3,1.1-0.5l0,0c0.5-0.1,0.7,0,0.7,0.6C52.1,62.3,52.1,62.4,52.1,62.5z"/>
	<path class="st2" d="M77.4,61.8c0,0.1,0,0.2,0,0.3c0,1.3,0,2.6,0,3.9c0,0.1,0,0.1,0,0.2c0,0.4,0.1,0.5,0.4,0.6c0.1,0,0.2,0,0.3,0.1
		c0,0.2,0,0.4,0,0.7c-0.3,0-0.6-0.1-1-0.1c-0.2-0.1-0.4-0.2-0.5-0.5c-0.1-0.4-0.2-0.7-0.2-1.1c0-0.8,0-1.5,0-2.3
		c0-0.3,0-0.6,0.1-0.9c-0.2-0.2-0.5-0.1-0.8-0.1c0-0.2,0-0.4,0-0.7C76.3,61.8,76.8,61.8,77.4,61.8z"/>
	<path class="st2" d="M35.6,62.5c-0.2,0-0.3,0-0.4,0c-0.1,0-0.3,0-0.4,0c0-0.2,0-0.4,0-0.7c0.5,0,1.1,0,1.7,0c0,0.1,0,0.2,0,0.3
		c0,1.4,0,2.7,0,4.1c0,0.4,0.1,0.5,0.5,0.6c0.1,0,0.2,0,0.3,0.1V67c0,0.6,0.1,0.6-0.6,0.6c-0.7-0.1-1.1-0.4-1-1.2
		C35.6,65.1,35.6,63.8,35.6,62.5z"/>
	<path class="st2" d="M90.3,66.8c0,0.1,0,0.2,0,0.3c0,0.4,0,0.4-0.4,0.3c-0.2,0-0.5-0.1-0.7-0.2c-0.4-0.1-0.5-0.4-0.6-0.8
		c0-1.2,0-2.4,0-3.7c0-0.1,0-0.2,0-0.3c-0.3,0-0.6,0-0.9,0c0-0.2,0-0.5,0-0.7c0.5,0,1.1,0,1.7,0c0,0.2,0,0.4,0,0.6
		c0,1.2,0,2.4,0,3.6c0,0.5,0.2,0.7,0.7,0.8C90.2,66.8,90.2,66.8,90.3,66.8z"/>
	<path class="st2" d="M76.4,59.4c0.3,0,0.6,0,1,0c0,0.3,0,0.6,0,0.9c-0.3,0-0.6,0-1,0C76.4,60,76.4,59.7,76.4,59.4z"/>
	<path class="st2" d="M89.4,60.3c-0.3,0-0.6,0-1,0c0-0.3,0-0.6,0-1c0.3,0,0.6,0,1,0C89.4,59.7,89.4,60,89.4,60.3z"/>
	<path class="st2" d="M35.4,59.4c0.3,0,0.6,0,1,0c0,0.3,0,0.6,0,1c-0.3,0-0.6,0-1,0C35.4,60,35.4,59.7,35.4,59.4z"/>
</g>
</svg>
