<?xml version="1.0" encoding="utf-8"?>
<!-- Generator: Adobe Illustrator 23.0.2, SVG Export Plug-In . SVG Version: 6.00 Build 0)  -->
<svg version="1.1" id="Layer_1" xmlns="http://www.w3.org/2000/svg" xmlns:xlink="http://www.w3.org/1999/xlink" x="0px" y="0px"
	 viewBox="0 0 189 321" style="enable-background:new 0 0 189 321;" xml:space="preserve">
<style type="text/css">
	.st0{fill:#1C1D1D;}
	.st1{fill:#E93329;}
	.st2{fill:#FFFFFF;}
</style>
<g>
	<path class="st0" d="M70,20h49c27.6,0,50,22.4,50,50v181c0,27.6-22.4,50-50,50H70c-27.6,0-50-22.4-50-50V70C20,42.4,42.4,20,70,20z
		"/>
	<rect x="20" y="86" class="st0" width="149" height="149"/>
</g>
<g>
	<path class="st1" d="M28.6,152c0.1-0.4,0.2-0.8,0.2-1.3c0.6-3.3,2.3-5.7,5.2-7.3c0.8-0.5,1.7-0.7,2.7-0.8c2.3-0.3,4.4,0.1,6.3,1.5
		c0.4,0.3,0.8,0.6,1.1,0.9c0.1,0,0.1,0.1,0.2,0.2c0-0.7,0-1.4,0-2.1c1.7,0,3.4,0,5,0c0,6.8,0,13.5,0,20.3c-1.7,0-3.3,0-5,0
		c0-0.7,0-1.3,0-2c-0.1,0.1-0.2,0.1-0.2,0.2c-0.5,0.4-1.1,0.9-1.6,1.2c-1.1,0.7-2.4,1.1-3.7,1.2c-1.6,0.1-3.1-0.2-4.5-0.9
		c-1.2-0.6-2.3-1.5-3.2-2.6c-1.3-1.5-2.1-3.2-2.3-5.1c0-0.3-0.1-0.6-0.2-0.9C28.6,153.6,28.6,152.8,28.6,152z M33.7,153
		c0,2,0.6,3.6,1.8,4.8c1.3,1.3,3,1.7,4.7,1.3c1.9-0.4,3.2-1.5,3.8-3.4c0.3-1.1,0.4-2.1,0.4-3.3c0-0.9-0.2-1.7-0.6-2.5
		c-0.9-1.7-2.4-2.6-4.3-2.8c-2-0.2-3.6,0.6-4.7,2.2C34,150.5,33.7,151.7,33.7,153z"/>
	<path class="st1" d="M91.4,163.3c-1.7,0-3.4,0-5,0c0-6.8,0-13.6,0-20.3c1.7,0,3.3,0,5,0c0,0.8,0,1.5,0,2.3c0.1-0.1,0.2-0.1,0.2-0.2
		c1.4-1.4,3-2.4,5-2.6c2.9-0.3,5.2,0.5,6.9,3.4c0,0.1,0.1,0.1,0.1,0.2c0.1-0.1,0.1-0.1,0.2-0.2c1.3-1.8,3-3,5.2-3.3
		c2.3-0.4,4.5,0.1,6.3,1.7c0.9,0.9,1.5,1.9,1.7,3.2c0.2,1.2,0.3,2.4,0.3,3.7c0,2.5,0,5,0,7.4c0,1.5-0.1,3-0.1,4.5
		c0,0.2-0.1,0.2-0.2,0.2c-1.5,0-3,0-4.5,0c-0.1,0-0.2,0-0.3,0c0-0.1,0-0.2,0-0.3c0-3.3,0-6.5,0-9.8c0-1.2,0-2.4-0.4-3.6
		c-0.2-0.6-0.5-1.2-1-1.7c-0.7-0.6-1.6-0.9-2.6-0.7c-2,0.3-3.3,1.6-3.7,3.6c-0.2,0.8-0.2,1.6-0.2,2.4c0,3.1,0,6.2,0,9.3
		c0,0.3,0,0.5,0,0.8c-1.7,0-3.4,0-5,0c0-0.1,0-0.2,0-0.3c0-3.3,0-6.5,0-9.8c0-1.2-0.1-2.4-0.4-3.6c-0.3-1.1-1-2-2.2-2.3
		c-1-0.3-1.9-0.1-2.8,0.3c-1.3,0.7-2,1.8-2.2,3.2c-0.2,0.9-0.3,1.8-0.3,2.8c0,3.2,0,6.3,0,9.5C91.4,163.1,91.4,163.2,91.4,163.3z"/>
	<path class="st1" d="M78.6,163.4c0-0.7,0-1.4,0-2.1c-0.2,0.1-0.3,0.2-0.4,0.3c-0.9,0.8-1.9,1.5-3,1.8c-3.3,1-6.3,0.3-8.9-2
		c-1.9-1.7-3-3.9-3.3-6.4c-0.3-2.4-0.2-4.8,0.9-7c1.5-3,3.8-4.9,7.1-5.5c0.3-0.1,0.7,0,1,0c2.2-0.2,4,0.7,5.7,1.9
		c0.3,0.2,0.6,0.4,0.9,0.7c0-0.1,0-0.2,0-0.3c0-0.5,0-1.1,0-1.6c0-0.1,0.1-0.2,0.2-0.2c1.6,0,3.1,0,4.7,0c0,0,0.1,0,0.2,0
		c0,0.1,0,0.2,0,0.3c0,4.5,0,8.9,0,13.4c0,2.1,0,4.3,0,6.4c0,0.2-0.1,0.3-0.3,0.3c-1.5,0-3.1,0-4.6,0
		C78.8,163.4,78.7,163.4,78.6,163.4z M78.6,153c0-0.2,0-0.3,0-0.4c0-1.2-0.3-2.4-1-3.4c-1.4-1.7-3.2-2.3-5.3-2
		c-1.6,0.3-2.8,1.2-3.5,2.6c-0.9,1.6-1.1,3.4-0.6,5.2c0.8,2.8,3.3,4.7,6.3,4.1c1.7-0.3,3-1.3,3.7-3C78.6,155.1,78.7,154,78.6,153z"
		/>
	<path class="st1" d="M139.3,159.4c-0.7,1.2-1.7,2.1-2.8,2.9c-1.3,0.9-2.8,1.3-4.4,1.5c-1.6,0.2-3.2,0.2-4.8-0.2
		c-3.5-0.9-5.8-3.1-7.1-6.4c-0.4-0.9-0.5-1.9-0.5-2.9c-0.1-1.4,0-2.9,0.4-4.3c1-3.5,3.3-5.9,6.7-7c1-0.3,2-0.4,3.1-0.4
		c1.5,0,3,0.1,4.4,0.7c3.2,1.3,5.2,3.7,6.1,7c0.4,1.4,0.5,2.8,0.3,4.2c0,0.1-0.1,0.2-0.2,0.2c-0.5,0-1.1,0-1.6,0c-4.7,0-9.3,0-14,0
		c-0.1,0-0.2,0-0.4,0c0,0.2,0,0.3,0.1,0.5c0.5,2.2,2.2,3.9,4.4,4.3c2.3,0.4,4.3-0.2,6-1.8c0.1-0.1,0.2-0.1,0.3,0
		c1.2,0.6,2.4,1.1,3.5,1.7C138.9,159.2,139.1,159.3,139.3,159.4z M124.7,150.6c3.7,0,7.3,0,10.9,0c0,0,0-0.1,0-0.1
		c0-0.1,0-0.2-0.1-0.2c-0.6-1.5-1.7-2.4-3.1-3c-0.9-0.4-1.9-0.4-2.9-0.3c-2,0.2-3.5,1.1-4.4,2.9C124.9,150,124.8,150.3,124.7,150.6z
		"/>
	<path class="st1" d="M139.3,163.3c0.1-0.2,0.2-0.4,0.3-0.5c1.1-1.5,2.2-3,3.3-4.6c1.3-1.8,2.5-3.5,3.8-5.3c0.2-0.3,0.2-0.3,0-0.6
		c-2.2-3-4.3-6-6.5-9.1c-0.1-0.1-0.1-0.2-0.2-0.3c0.1,0,0.2,0,0.3,0c1.8,0,3.5,0,5.3,0c0.2,0,0.3,0,0.4,0.2c1.1,1.5,2.2,3,3.3,4.5
		c0.2,0.3,0.4,0.5,0.6,0.8c0.1-0.1,0.1-0.2,0.2-0.2c1.2-1.7,2.4-3.4,3.6-5.1c0.1-0.1,0.2-0.2,0.3-0.2c1.8,0,3.5,0,5.3,0
		c0.1,0,0.1,0,0.3,0c-0.1,0.2-0.2,0.4-0.4,0.6c-1,1.4-2,2.7-2.9,4.1c-1.1,1.5-2.2,3.1-3.3,4.6c-0.1,0.2-0.1,0.3,0,0.5
		c2.3,3.2,4.7,6.5,7,9.7c0.2,0.2,0.3,0.5,0.5,0.7c-0.2,0-0.2,0-0.3,0c-1.7,0-3.5,0-5.2,0c-0.2,0-0.3,0-0.4-0.2
		c-1.2-1.7-2.5-3.4-3.7-5.1c-0.3-0.4-0.7-0.9-1-1.4c-0.1,0.1-0.1,0.2-0.2,0.2c-1.5,2.1-3,4.1-4.4,6.2c-0.1,0.1-0.2,0.2-0.3,0.2
		c-0.4,0-0.7,0-1.1,0c-1.4,0-2.7,0-4.1,0C139.5,163.4,139.4,163.4,139.3,163.3z"/>
	<path class="st1" d="M52.2,163.4c0-6.8,0-13.6,0-20.4c1.6,0,3.2,0,4.8,0c0,0.5,0,1.1,0,1.6c0,0,0,0,0.1,0c0.2-0.1,0.3-0.3,0.5-0.4
		c0.7-0.7,1.6-1.3,2.5-1.6c0.2-0.1,0.3-0.1,0.5-0.1c0.5,0,1.1,0,1.6,0c0.7,0,1.3,0.1,1.9,0.3c0.3,0.1,0.7,0.3,1.1,0.4
		c-0.2,0.3-0.4,0.5-0.6,0.7c-0.7,1-1.4,1.9-2.1,2.9c-0.2,0.2-0.3,0.3-0.5,0.2c-0.8-0.2-1.6-0.2-2.4,0.1c-1.1,0.4-1.6,1.3-2,2.3
		c-0.3,0.9-0.4,1.8-0.4,2.7c0,3.6,0,7.2,0,10.9c0,0.3,0,0.3-0.3,0.3C55.3,163.4,53.8,163.4,52.2,163.4z"/>
	<path class="st2" d="M94.5,176.6c-0.3,0-0.5,0-0.8,0c0-0.1,0-0.2,0-0.3c0-1.1,0-2.1,0-3.2c0-0.3-0.1-0.7-0.2-1
		c-0.1-0.5-0.5-0.7-1-0.6c-0.6,0.1-1,0.4-1.4,0.8c-0.1,0-0.1,0.2-0.1,0.3c0,0.9,0,1.8,0,2.7c0,0.4,0,0.8,0,1.2c-0.3,0-0.6,0-0.9,0
		c0-1.8,0-3.7,0-5.6c0.2,0,0.4,0,0.6,0c0,0,0.1,0.1,0.1,0.1c0,0.1,0.1,0.3,0.1,0.5c0.2-0.2,0.5-0.3,0.7-0.4c0.4-0.3,0.8-0.4,1.3-0.4
		c0.6,0.1,1,0.3,1.3,0.8c0.2-0.1,0.3-0.2,0.5-0.3c0.5-0.4,1.1-0.6,1.8-0.5c0.4,0.1,0.7,0.3,1,0.6c0.2,0.3,0.4,0.7,0.4,1.1
		c0,1.3,0,2.6,0,3.8c0,0,0,0.1,0,0.1c-0.2,0-0.5,0-0.7,0c0-0.2,0-0.4,0-0.6c0-1,0-2,0-3c0-0.3-0.1-0.7-0.2-1
		c-0.2-0.4-0.5-0.5-0.9-0.4c-0.5,0.1-1,0.4-1.4,0.7c-0.1,0-0.1,0.2-0.1,0.3c0,1.2,0,2.5,0,3.7C94.5,176.4,94.5,176.4,94.5,176.6z"/>
	<path class="st2" d="M35.9,176.6c-0.5,0.1-0.5,0.1-0.7-0.3c-0.4,0.2-0.7,0.4-1.1,0.5c-1.5,0.3-2.7-0.5-3-2
		c-0.1-0.7-0.1-1.4,0.1-2.1c0.2-1,1-1.7,2.1-1.7c0.7,0,1.3,0.1,1.9,0.4c0-0.9,0-1.8,0-2.7c0.3,0,0.5,0,0.8,0
		C35.9,171.2,35.9,173.9,35.9,176.6z M35.1,173.7c0-0.4,0-0.9,0-1.3c0-0.1,0-0.1,0-0.2c0-0.1,0-0.2-0.2-0.2
		c-0.4-0.1-0.9-0.3-1.3-0.4c-0.7-0.1-1.3,0.2-1.5,1c-0.3,0.9-0.3,1.8,0.1,2.6c0.2,0.4,0.5,0.7,1,0.8c0.7,0.2,1.3-0.1,1.8-0.4
		c0.1-0.1,0.2-0.2,0.2-0.3C35.1,174.7,35.1,174.2,35.1,173.7z"/>
	<path class="st2" d="M116.5,171.2c0-0.9,0-1.8,0-2.7c0.3,0,0.5,0,0.8,0c0,2.7,0,5.3,0,8c-0.3,0.1-0.4,0-0.7-0.3
		c-0.4,0.3-0.9,0.5-1.4,0.5c-1.6,0.1-2.5-0.9-2.6-2.3c-0.1-0.6-0.1-1.2,0.1-1.8c0.3-1.5,1.3-2.1,2.8-1.8
		C115.7,171,116.1,171.1,116.5,171.2z M116.5,173.8c0-0.3,0-0.7,0-1c0-0.8,0-0.9-0.8-1.1c-0.1,0-0.2,0-0.2-0.1
		c-1.1-0.2-1.8,0.2-2.1,1.4c-0.2,0.8-0.1,1.6,0.3,2.3c0.2,0.4,0.5,0.6,0.9,0.7c0.6,0.1,1.2-0.1,1.7-0.4c0.2-0.1,0.2-0.2,0.2-0.4
		C116.4,174.8,116.5,174.3,116.5,173.8z"/>
	<path class="st2" d="M42.1,174.1c-1.4,0-2.7,0-4.2,0c0.1,0.4,0.2,0.8,0.3,1.2c0.2,0.5,0.7,0.7,1.1,0.8c0.7,0.1,1.4,0,1.9-0.6
		c0,0,0.1-0.1,0.2-0.1c0.2,0.1,0.4,0.1,0.6,0.2c-0.2,0.4-0.5,0.7-0.9,0.9c-0.9,0.4-1.8,0.4-2.7,0.1c-0.6-0.2-1-0.8-1.2-1.4
		c-0.2-0.9-0.2-1.8,0-2.7c0.2-0.9,1-1.5,1.8-1.5c0.5,0,0.9,0,1.4,0c0.7,0.1,1.2,0.5,1.4,1.2C42,172.8,42.1,173.4,42.1,174.1z
		 M41.1,173.3c0.1-1.1-0.4-1.7-1.3-1.8c-0.2,0-0.4,0-0.6,0c-0.9,0.2-1.4,0.9-1.3,1.7C39,173.3,40.1,173.3,41.1,173.3z"/>
	<path class="st2" d="M107.4,174c-0.1,0.8,0.2,1.5,0.7,1.8c0.7,0.4,1.7,0.3,2.2-0.2c0.3-0.3,0.6-0.3,0.9-0.1c0,0,0.1,0,0.1,0
		c0,0,0,0,0.1,0.1c-0.2,0.2-0.3,0.4-0.5,0.6c-0.8,0.7-1.7,0.8-2.6,0.5c-1.1-0.2-1.7-1-1.8-2.1c0-0.6,0-1.3,0.1-1.9
		c0.2-1.1,0.9-1.7,1.9-1.8c0.5,0,1,0,1.5,0c0.6,0.1,1,0.5,1.2,1c0.2,0.5,0.2,1.1,0.3,1.7c0,0.1,0,0.2,0,0.4
		C110.1,174,108.8,174,107.4,174z M110.6,173.3c-0.1-0.4-0.1-0.7-0.2-1.1c-0.1-0.3-0.3-0.5-0.6-0.6c-0.6-0.2-1.2-0.2-1.7,0.1
		c-0.5,0.3-0.8,1-0.7,1.5C108.5,173.3,109.5,173.3,110.6,173.3z"/>
	<path class="st2" d="M59.1,174c-1.4,0-2.7,0-4.1,0c0,1.4,0.6,2.2,2.1,2c0.4-0.1,0.8-0.3,1.1-0.6c0,0,0.1-0.1,0.2-0.1
		c0.2,0.1,0.4,0.1,0.6,0.2c-0.2,0.4-0.5,0.7-0.8,0.9c-1,0.6-2.4,0.5-3.3-0.2c-0.3-0.2-0.4-0.4-0.5-0.7c-0.3-0.8-0.4-1.6-0.3-2.4
		c0.1-0.4,0.1-0.8,0.3-1.2c0.3-0.6,0.8-1,1.5-1c0.5,0,0.9,0,1.4,0c0.8,0.1,1.3,0.6,1.5,1.3C59.1,172.8,59.1,173.4,59.1,174z
		 M55,173.3c1.1,0,2.1,0,3.2,0c0.1-1.1-0.3-1.7-1.2-1.8c-0.6-0.1-1.1,0-1.5,0.5C55.1,172.4,55,172.8,55,173.3z"/>
	<path class="st2" d="M66.2,175.6c0.1-0.2,0.2-0.4,0.2-0.6c0.5-1.2,0.9-2.5,1.4-3.7c0.1-0.2,0.1-0.3,0.3-0.2c0.2,0,0.4,0,0.6,0
		c0,0.1-0.1,0.2-0.1,0.3c-0.9,2.3-1.8,4.7-2.6,7c-0.1,0.2-0.2,0.3-0.4,0.3c-0.6,0-1.1,0-1.7,0c-0.1,0-0.2,0-0.3,0
		c0.1-0.2,0.3-0.2,0.5-0.2c0.2,0,0.4,0,0.6,0c0.3,0,0.5-0.1,0.6-0.4c0,0,0-0.1,0.1-0.1c0.4-0.6,0.4-1.3,0.1-2
		c-0.6-1.5-1.1-3-1.7-4.5c0-0.1-0.1-0.2-0.1-0.4c0.3,0,0.5,0,0.7,0c0.1,0,0.1,0.1,0.2,0.2c0.5,1.4,1,2.8,1.6,4.2
		C66.1,175.4,66.1,175.5,66.2,175.6z"/>
	<path class="st2" d="M78.3,171C78.4,171,78.4,171,78.3,171c0.6-0.1,0.6-0.1,0.7,0.4c0,0,0,0.1,0.1,0.2c0.2-0.1,0.5-0.3,0.7-0.4
		c0.5-0.3,1-0.4,1.6-0.3c1,0.2,1.5,0.8,1.5,1.8c0,1.2,0,2.4,0,3.7c0,0.2-0.1,0.2-0.2,0.2c-0.2,0-0.4,0-0.6,0c0-0.1,0-0.2,0-0.3
		c0-1.1,0-2.3,0-3.4c0-0.3-0.1-0.5-0.2-0.8c-0.2-0.4-0.6-0.6-1.1-0.5c-0.6,0.1-1.2,0.4-1.7,0.8c-0.1,0-0.1,0.2-0.1,0.2c0,1,0,2,0,3
		c0,0.3,0,0.7,0,1c-0.3,0-0.5,0-0.8,0C78.3,174.7,78.3,172.9,78.3,171z"/>
	<path class="st2" d="M76.9,176.6c-0.2,0-0.4,0-0.6,0c-0.1-0.2-0.1-0.4-0.2-0.6c-0.3,0.2-0.5,0.3-0.8,0.5c-0.6,0.3-1.2,0.4-1.9,0.2
		c-0.7-0.2-1.1-0.8-1.1-1.5c-0.1-1.4,0-2.8,0-4.2c0.3,0,0.5,0,0.8,0c0,0.4,0,0.8,0,1.2c0,0.7,0,1.4,0,2.1c0,0.3,0.1,0.6,0.1,0.9
		c0.1,0.6,0.6,1,1.3,0.8c0.6-0.1,1-0.4,1.5-0.8c0.1,0,0.1-0.2,0.1-0.2c0-1.2,0-2.5,0-3.7c0-0.1,0-0.2,0-0.3c0.3,0,0.5,0,0.8,0
		C76.9,172.9,76.9,174.7,76.9,176.6z"/>
	<path class="st2" d="M103.5,168.9c0,0.7,0,1.4,0,2.1c0.7,0,1.3,0,2.1,0c-0.1,0.3-0.2,0.5-0.3,0.7c0,0-0.1,0.1-0.2,0.1
		c-0.5,0-1,0-1.6,0c0,1.3,0,2.5,0,3.7c0,0.3,0.3,0.5,0.7,0.5c0.3,0,0.6-0.1,1-0.2c0.1,0,0.2,0,0.2,0c0.1,0.1,0.2,0.3,0.3,0.4
		c0,0-0.1,0.1-0.2,0.1c-0.6,0.3-1.2,0.4-1.9,0.2c-0.7-0.1-1-0.6-1-1.2c0-1.1,0-2.3,0-3.4c0-0.1,0-0.2,0-0.3c-0.3,0-0.6,0-0.9,0
		c0-0.3,0-0.5,0-0.8c0.2,0,0.5,0,0.7,0c0.2,0,0.3-0.1,0.3-0.3c0-0.4,0-0.9,0-1.3c0-0.3,0.1-0.4,0.3-0.4
		C103.3,169,103.4,168.9,103.5,168.9z"/>
	<path class="st2" d="M53.6,171c-0.4,1-0.8,2-1.1,3c-0.3,0.8-0.6,1.6-0.9,2.4c-0.1,0.2-0.1,0.2-0.3,0.2c-0.2,0-0.6,0.1-0.7-0.1
		c-0.2-0.1-0.2-0.4-0.3-0.6c-0.6-1.6-1.2-3.1-1.8-4.7c0,0,0-0.1,0-0.1c0,0,0,0,0,0c0.8-0.1,0.8-0.1,1.1,0.7c0.3,1,0.7,1.9,1.1,2.9
		c0.1,0.4,0.2,0.7,0.3,1.2c0.2-0.6,0.5-1.3,0.7-1.9c0.3-0.9,0.6-1.7,0.9-2.6c0.1-0.2,0.2-0.2,0.3-0.2C53.2,171,53.4,171,53.6,171z"
		/>
	<path class="st2" d="M45.2,176c0,0.1,0,0.2,0,0.3c0,0.4,0,0.4-0.4,0.4c-0.6,0-1.1-0.4-1.2-0.9c0-0.2,0-0.4,0-0.6c0-1.9,0-3.8,0-5.6
		c0-0.1,0-0.2,0-0.3c-0.3,0-0.6,0-0.9,0c0-0.2,0-0.4,0-0.7c0.5,0,1.1,0,1.7,0c0,0.1,0,0.2,0,0.3c0,1.6,0,3.2,0,4.9
		c0,0.5,0,1.1,0,1.6c0,0.4,0.2,0.6,0.6,0.7C45,176,45.1,176,45.2,176z"/>
	<path class="st2" d="M84.6,169.3c-0.2,0-0.3,0-0.5,0c-0.1,0-0.3,0-0.4,0c0-0.2,0-0.4,0-0.7c0.5,0,1.1,0,1.7,0c0,0.1,0,0.2,0,0.3
		c0,1.1,0,2.3,0,3.4c0,1,0,1.9,0,2.9c0,0.6,0.2,0.8,0.8,0.8c0,0,0.1,0,0.1,0c0,0.1,0,0.2,0,0.3c0,0.4,0,0.4-0.4,0.4
		c-0.2,0-0.5-0.1-0.7-0.2c-0.3-0.2-0.5-0.4-0.5-0.8c0-1.8,0-3.7,0-5.5C84.6,169.9,84.6,169.6,84.6,169.3z"/>
	<path class="st2" d="M63.1,171.7c-0.6,0-1.1,0-1.6,0.4c-0.2,0.2-0.4,0.4-0.4,0.7c0,1.2,0,2.4,0,3.6c0,0.1,0,0.2,0,0.3
		c-0.3,0-0.6,0-0.9,0c0-1.9,0-3.7,0-5.6c0.2,0,0.4,0,0.6,0c0,0,0.1,0.1,0.1,0.1c0,0.1,0,0.2,0.1,0.4c0.1-0.1,0.2-0.1,0.2-0.2
		c0.4-0.2,0.7-0.3,1.1-0.5c0,0,0,0,0,0c0.5-0.1,0.7,0,0.7,0.6C63.1,171.5,63.1,171.6,63.1,171.7z"/>
	<path class="st2" d="M88.4,171c0,0.1,0,0.2,0,0.3c0,1.3,0,2.6,0,3.9c0,0.1,0,0.1,0,0.2c0,0.4,0.1,0.5,0.4,0.6c0.1,0,0.2,0,0.3,0.1
		c0,0.2,0,0.4,0,0.7c-0.3,0-0.6-0.1-1-0.1c-0.2-0.1-0.4-0.2-0.5-0.5c-0.1-0.4-0.2-0.7-0.2-1.1c0-0.8,0-1.5,0-2.3
		c0-0.3,0-0.6,0.1-0.9c-0.2-0.2-0.5-0.1-0.8-0.1c0-0.2,0-0.4,0-0.7C87.3,171,87.8,171,88.4,171z"/>
	<path class="st2" d="M46.6,171.7c-0.2,0-0.3,0-0.4,0c-0.1,0-0.3,0-0.4,0c0-0.2,0-0.4,0-0.7c0.5,0,1.1,0,1.7,0c0,0.1,0,0.2,0,0.3
		c0,1.4,0,2.7,0,4.1c0,0.4,0.1,0.5,0.5,0.6c0.1,0,0.2,0,0.3,0.1c0,0,0,0.1,0,0.1c0,0.6,0.1,0.6-0.6,0.6c-0.7-0.1-1.1-0.4-1-1.2
		C46.6,174.3,46.6,173,46.6,171.7z"/>
	<path class="st2" d="M101.3,176c0,0.1,0,0.2,0,0.3c0,0.4,0,0.4-0.4,0.3c-0.2,0-0.5-0.1-0.7-0.2c-0.4-0.1-0.5-0.4-0.6-0.8
		c0-1.2,0-2.4,0-3.7c0-0.1,0-0.2,0-0.3c-0.3,0-0.6,0-0.9,0c0-0.2,0-0.5,0-0.7c0.5,0,1.1,0,1.7,0c0,0.2,0,0.4,0,0.6
		c0,1.2,0,2.4,0,3.6c0,0.5,0.2,0.7,0.7,0.8C101.2,176,101.2,176,101.3,176z"/>
	<path class="st2" d="M87.4,168.6c0.3,0,0.6,0,1,0c0,0.3,0,0.6,0,0.9c-0.3,0-0.6,0-1,0C87.4,169.2,87.4,168.9,87.4,168.6z"/>
	<path class="st2" d="M100.4,169.5c-0.3,0-0.6,0-1,0c0-0.3,0-0.6,0-1c0.3,0,0.6,0,1,0C100.4,168.9,100.4,169.2,100.4,169.5z"/>
	<path class="st2" d="M46.4,168.6c0.3,0,0.6,0,1,0c0,0.3,0,0.6,0,1c-0.3,0-0.6,0-1,0C46.4,169.2,46.4,168.9,46.4,168.6z"/>
</g>
</svg>
